<mxfile host="app.diagrams.net" modified="2023-12-13T05:28:52.810Z" agent="Mozilla/5.0 (Windows NT 10.0; Win64; x64) AppleWebKit/537.36 (KHTML, like Gecko) Chrome/120.0.0.0 Safari/537.36" etag="_af-3HcNY_WpoWxs16zb" version="22.1.8" type="github">
  <diagram name="Page-1" id="-MrXmph5bJQIwBQHlH2B">
    <mxGraphModel dx="1434" dy="750" grid="0" gridSize="10" guides="1" tooltips="1" connect="1" arrows="1" fold="1" page="1" pageScale="1" pageWidth="850" pageHeight="1100" math="0" shadow="0">
      <root>
        <mxCell id="0" />
        <mxCell id="1" parent="0" />
        <mxCell id="8Fmy3ytTa2UQGmZ06XOd-1" value="Azure Board" style="image;sketch=0;aspect=fixed;html=1;points=[];align=center;fontSize=12;image=img/lib/mscae/Azure_Boards.svg;" vertex="1" parent="1">
          <mxGeometry x="38.5" y="21" width="69" height="69" as="geometry" />
        </mxCell>
        <mxCell id="8Fmy3ytTa2UQGmZ06XOd-2" value="Azure Pipeline" style="image;sketch=0;aspect=fixed;html=1;points=[];align=center;fontSize=12;image=img/lib/mscae/Azure_Pipelines.svg;" vertex="1" parent="1">
          <mxGeometry x="33.5" y="141" width="74" height="74" as="geometry" />
        </mxCell>
        <mxCell id="8Fmy3ytTa2UQGmZ06XOd-3" value="Azure Repos" style="image;sketch=0;aspect=fixed;html=1;points=[];align=center;fontSize=12;image=img/lib/mscae/Azure_Repos.svg;" vertex="1" parent="1">
          <mxGeometry x="36" y="274" width="76" height="84.44" as="geometry" />
        </mxCell>
        <mxCell id="8Fmy3ytTa2UQGmZ06XOd-4" value="" style="image;sketch=0;aspect=fixed;html=1;points=[];align=center;fontSize=12;image=img/lib/mscae/Azure_Artifacts.svg;" vertex="1" parent="1">
          <mxGeometry x="57" y="597" width="124" height="124" as="geometry" />
        </mxCell>
        <mxCell id="8Fmy3ytTa2UQGmZ06XOd-5" value="Azure Test Plans" style="image;sketch=0;aspect=fixed;html=1;points=[];align=center;fontSize=12;image=img/lib/mscae/Azure_Test_Plans.svg;" vertex="1" parent="1">
          <mxGeometry x="36" y="397" width="78.6" height="87.33" as="geometry" />
        </mxCell>
        <mxCell id="8Fmy3ytTa2UQGmZ06XOd-6" value="" style="verticalLabelPosition=bottom;html=1;verticalAlign=top;align=center;strokeColor=none;fillColor=#00BEF2;shape=mxgraph.azure.git_repository;" vertex="1" parent="1">
          <mxGeometry x="313" y="57" width="86" height="100" as="geometry" />
        </mxCell>
        <mxCell id="8Fmy3ytTa2UQGmZ06XOd-7" value="" style="image;aspect=fixed;html=1;points=[];align=center;fontSize=12;image=img/lib/azure2/devops/Azure_DevOps.svg;" vertex="1" parent="1">
          <mxGeometry x="455" y="249" width="64" height="64" as="geometry" />
        </mxCell>
        <mxCell id="8Fmy3ytTa2UQGmZ06XOd-8" value="Teams" style="sketch=0;pointerEvents=1;shadow=0;dashed=0;html=1;strokeColor=none;fillColor=#DF8C42;labelPosition=center;verticalLabelPosition=bottom;verticalAlign=top;align=center;outlineConnect=0;shape=mxgraph.veeam2.microsoft_teams;" vertex="1" parent="1">
          <mxGeometry x="559" y="397" width="81" height="58" as="geometry" />
        </mxCell>
      </root>
    </mxGraphModel>
  </diagram>
</mxfile>
